<svg width="209.556" height="250.647" viewBox="0 0 55.445 66.317" xmlns="http://www.w3.org/2000/svg"><defs><linearGradient id="a" x2="1" gradientTransform="scale(-213.32 213.32) rotate(-90 -.027 1.438)" gradientUnits="userSpaceOnUse"><stop stop-color="#0c4366" offset="0"/><stop stop-color="#1b75bc" offset="1"/></linearGradient><linearGradient id="b" x2="1" gradientTransform="matrix(0 -121.59 -121.59 0 312.4 269.56)" gradientUnits="userSpaceOnUse"><stop stop-color="#414142" offset="0"/><stop stop-color="#d1d3d4" offset="1"/></linearGradient><linearGradient id="d" x2="1" gradientTransform="matrix(0 -35.619 -35.619 0 312.4 163.75)" gradientUnits="userSpaceOnUse"><stop stop-color="#ef4136" offset="0"/><stop stop-color="#fbb03f" offset="1"/></linearGradient><linearGradient id="e" x2="1" gradientTransform="matrix(0 -11.932 -11.932 0 301.04 174.14)" gradientUnits="userSpaceOnUse"><stop stop-color="#ef4136" offset="0"/><stop stop-color="#fbb03f" offset="1"/></linearGradient><linearGradient id="f" x2="1" gradientTransform="matrix(7.5244 0 0 -7.5244 319.99 169.15)" gradientUnits="userSpaceOnUse"><stop stop-color="#fbb03f" offset="0"/><stop stop-color="#ef4136" offset="1"/></linearGradient><linearGradient id="g" x2="1" gradientTransform="matrix(.0752 0 0 -.0752 327.81 163.42)" gradientUnits="userSpaceOnUse"><stop stop-color="#fbb03f" offset="0"/><stop stop-color="#ef4136" offset="1"/></linearGradient><clipPath id="c"><path d="M0 1190.55h1683.78V0H0z"/></clipPath></defs><path d="M312.4 287.83h-78.583V186.67c0-32.127 55.154-69.899 78.583-86.829 23.428 16.93 78.583 54.702 78.583 86.829v101.16zm13.627-77.627c3.172 4.09 6.649 8.629 8.441 14.021 3.776 11.398 0 11.398 11.332 26.595 11.334 15.192 15.112 15.192 15.112 22.79 0 0 3.774-7.598-7.559-22.79-11.333-15.197-3.778-18.993-7.553-26.595 0 0-3.78-11.391-3.78-15.189 0-3.15-2.598-11.523-7.79-16.455 2.887-1.104 7.53-2.538 12.176-2.538 7.551 0 22.66 7.596 22.66 7.596l-15.109-15.201c-2.725-2.734-11.313-5.463-15.915-6.778l4.583-4.612-5.888-5.917c.148-3.655-1.667-5.48-1.667-5.48s-3.78-3.799 0-7.596c3.78-3.802 3.78 0 7.555-7.601-7.555 0-11.335-3.794-18.889-11.39-7.561-7.598-7.561-15.199-11.337-18.998-3.774 3.799-3.774 11.4-11.326 18.998-7.562 7.596-11.342 11.39-18.897 11.39 3.78 7.601 3.78 3.799 7.555 7.601 3.78 3.797 0 7.596 0 7.596s-1.812 1.825-1.667 5.48l-5.888 5.917 4.581 4.612c-4.594 1.315-13.192 4.044-15.911 6.778-3.778 3.802-15.114 15.201-15.114 15.201s15.114-7.596 22.665-7.596c4.645 0 9.287 1.434 12.176 2.538-5.191 4.932-7.789 13.305-7.789 16.455 0 3.798-3.779 15.189-3.779 15.189-3.777 7.602 3.779 11.398-7.553 26.595-11.335 15.192-7.559 22.79-7.559 22.79 0-7.598 3.774-7.598 15.112-22.79 11.332-15.197 7.559-15.197 11.332-26.595 1.784-5.371 5.238-9.894 8.396-13.971 1.401-1.106 4.669-2.247 6.06-2.066h.673v25.28l-13.409 3.699v5.988h14.584v15.85l-2.632 3.156 8.39 10.053 8.396-10.053-2.635-3.156v-15.85h14.583v-5.988l-13.407-3.699v-25.275l.655.004c.111-.018.235-.026.37-.026 1.5 0 4.337 1.021 5.666 2.033" fill="url(#a)" transform="matrix(.35278 0 0 -.35278 -82.485 101.54)"/><path d="M307.66 262.26l1.58-1.893v-.038l2.027-.846-2.027-.848v-1.324l2.091-.876-2.091-.877v-1.21l2.091-.873-2.091-.879v-1.456l2.13-.89-2.13-.892v-1.248h.029l2.168-.907-2.168-.907h-.029v-1.149h.029l2.168-.905-2.168-.907h-.029v-1.196h-.004l2.166-.905-2.23-.701h-14.516v-1.378l12.507-3.45.021-.002.106-.039h2.716l-1.943-2.331v-73.889l4.321-7.636.012.024.016-.024 4.318 7.636v73.889l-1.941 2.331h2.716l.108.039.02.002 12.506 3.45v1.378H315.58l-2.046.701 2.024.766v1.41l-1.991.832 1.991.832v1.297l-1.991.832 1.991.833v1.355l-2.057.859 2.057.859v1.487l-2.097.879 2.097.873v1.21l-2.097.877 2.097.876v1.267l-2.162.905 2.162.899v.04l1.534 1.838-4.718 5.647zm4.003-100.97v74.373h1.467V161.29l-.734-2.481z" fill="url(#b)" transform="matrix(.35278 0 0 -.35278 -82.485 101.54)"/><g clip-path="url(#c)" transform="matrix(.35278 0 0 -.35278 -82.485 101.54)"><path d="M296.17 163.27c.203.087.488.137.827.157a4.852 4.852 0 01-.827-.157c-1.722-.756 1.122-3.621 1.122-3.621s3.78-3.8 3.78-7.596c0-2.48 1.608-4.965 2.727-6.386h.096c-2.052 3.355.949 6.386.949 6.386 3.781-3.803 7.555-3.803 7.555-7.6 0 3.797 3.777 3.797 7.558 7.6 0 0 3-3.031.954-6.386h.091c1.116 1.421 2.735 3.906 2.735 6.386 0 3.796 3.779 7.596 3.779 7.596s2.845 2.865 1.118 3.621a5.158 5.158 0 01-.82.157c.335-.02.619-.07.82-.157 1.114-.32 2.657-1.189 2.657-3.621 0-3.8-3.775-7.596-3.775-11.399 0-3.797-7.559-7.592-7.559-11.392 0 0 0 3.8-3.781 3.8 0 0 3.781-7.596-3.777-11.399-7.555 3.803-3.774 11.399-3.774 11.399-3.781 0-3.781-3.8-3.781-3.8 0 3.8-7.552 7.595-7.552 11.392 0 3.803-3.781 7.599-3.781 11.399 0 2.432 1.548 3.301 2.659 3.621m8.623.26v-.078c-7.501.06-7.501 11.393-7.501 11.393zm-10.133 75.63v1.378h14.515l2.23.701-2.166.904h.004v1.196h.03l2.168.908-2.168.905h-.03v1.148h.03l2.168.908-2.168.907h-.03v1.247l2.131.892-2.131.891v1.455l2.091.879-2.091.873v1.211l2.091.877-2.091.875v1.324l2.028.849-2.028.845v.039l-1.58 1.892 4.714 5.647 4.718-5.647-1.534-1.838v-.039l-2.162-.899 2.162-.905v-1.268l-2.097-.875 2.097-.877v-1.211l-2.097-.873 2.097-.879v-1.486l-2.057-.86 2.057-.859v-1.354l-1.991-.833 1.991-.833v-1.296l-1.991-.832 1.991-.832v-1.411l-2.023-.765 2.045-.701h14.56v-1.378l-12.507-3.452h-.02l-.108-.04h-2.715l1.94-2.331v-73.888l-4.318-7.636-.016.023-.012-.023-4.321 7.636v73.888l1.943 2.331h-2.716l-.106.04h-.021zm25.331-75.661l7.525 11.346s-.006-11.357-7.525-11.393zm-64.258 34.138l15.113-15.199c2.72-2.735 11.317-5.465 15.912-6.782l-4.582-4.61 5.889-5.917c-.145-3.654 1.666-5.48 1.666-5.48s3.78-3.8 0-7.596c-3.775-3.803-3.775 0-7.555-7.6 7.555 0 11.335-3.795 18.896-11.391 7.553-7.599 7.553-15.198 11.327-18.997 3.777 3.799 3.777 11.398 11.338 18.997 7.554 7.596 11.334 11.391 18.888 11.391-3.775 7.6-3.775 3.797-7.554 7.6-3.78 3.796 0 7.596 0 7.596s1.814 1.826 1.666 5.48l5.888 5.917-4.582 4.61c4.601 1.317 13.19 4.047 15.913 6.782l15.11 15.199s-15.11-7.596-22.661-7.596c-4.645 0-9.288 1.433-12.174 2.537 5.19 4.932 7.789 13.305 7.789 16.455 0 3.8 3.78 15.192 3.78 15.192 3.776 7.601-3.78 11.397 7.553 26.591 11.334 15.195 7.559 22.794 7.559 22.794 0-7.599-3.779-7.599-15.112-22.794-11.332-15.194-7.556-15.194-11.332-26.591-1.792-5.392-5.268-9.934-8.44-14.022-1.448-1.104-4.69-2.218-6.037-2.008l-.654-.003v25.273l13.407 3.699v5.989h-14.583v15.849l2.634 3.158-8.396 10.053-8.39-10.053 2.632-3.158v-15.849h-14.585v-5.989l13.41-3.699v-25.279h-.673c-1.392-.18-4.659.959-6.06 2.065-3.158 4.079-6.612 8.602-8.395 13.974-3.773 11.397 0 11.397-11.334 26.591-11.336 15.195-15.111 15.195-15.111 22.794 0 0-3.776-7.599 7.559-22.794 11.332-15.194 3.776-18.99 7.552-26.591 0 0 3.78-11.392 3.78-15.192 0-3.15 2.598-11.523 7.79-16.455-2.888-1.104-7.531-2.537-12.176-2.537-7.552 0-22.665 7.596-22.665 7.596" fill="#fff"/><path d="M311.66 175.29v-13.901l.732-2.48.735 2.48v74.372h-1.467v-56.679z" fill="#fff"/></g><path d="M327.51 159.65s-3.778-3.8-3.778-7.596c0-2.481-1.619-4.965-2.735-6.386h-.091c2.045 3.354-.955 6.386-.955 6.386-3.78-3.803-7.557-3.803-7.557-7.601 0 3.798-3.775 3.798-7.555 7.601 0 0-3.001-3.032-.95-6.386h-.096c-1.119 1.421-2.726 3.905-2.726 6.386 0 3.796-3.78 7.596-3.78 7.596s-2.845 2.864-1.122 3.62c-1.112-.32-2.659-1.189-2.659-3.62 0-3.8 3.781-7.596 3.781-11.399 0-3.798 7.552-7.592 7.552-11.392 0 0 0 3.8 3.78 3.8 0 0-3.78-7.596 3.775-11.399 7.557 3.803 3.777 11.399 3.777 11.399 3.78 0 3.78-3.8 3.78-3.8 0 3.8 7.559 7.594 7.559 11.392 0 3.803 3.775 7.599 3.775 11.399 0 2.431-1.542 3.3-2.657 3.62 1.728-.756-1.118-3.62-1.118-3.62" fill="url(#d)" transform="matrix(.35278 0 0 -.35278 -82.485 101.54)"/><path d="M304.79 163.45v.078l-7.5 11.316s0-11.334 7.5-11.394" fill="url(#e)" transform="matrix(.35278 0 0 -.35278 -82.485 101.54)"/><path d="M319.99 163.5v-.047c7.518.036 7.524 11.394 7.524 11.394z" fill="url(#f)" transform="matrix(.35278 0 0 -.35278 -82.485 101.54)"/><path d="M327.88 163.41l.001.002c-.026.002-.046.006-.074.009.019-.003.051-.009.073-.011" fill="url(#g)" transform="matrix(.35278 0 0 -.35278 -82.485 101.54)"/></svg>